<svg xmlns="http://www.w3.org/2000/svg" width="700" height="400"><rect width="700" height="400" x="0" y="0" fill="#FFFFFF" id="background"/><g transform="translate(20,20)" id="viz"><g><rect x="0" y="0" height="3.0790800896659856" width="5" fill="black"><title>Coal reserves: 63.96</title></rect><rect x="131" y="166.8102034774007" height="4.58973570589049" width="5" fill="black"><title>Coal: 95.34</title></rect><rect x="0" y="11.379496881040714" height="1.5101742090810877" width="5" fill="black"><title>Coal imports: 31.37</title></rect><rect x="0" y="269.4019904775553" height="5.184754935225499" width="5" fill="black"><title>Oil reserves: 107.7</title></rect><rect x="131" y="213.02427007137047" height="42.36767988294608" width="5" fill="black"><title>Oil: 880.08</title></rect><rect x="0" y="212.9911931651421" height="37.18244354057728" width="5" fill="black"><title>Oil imports: 772.37</title></rect><rect x="0" y="164.61894786373685" height="3.958610940794756" width="5" fill="black"><title>Gas reserves: 82.23</title></rect><rect x="131" y="56.617557733828846" height="101.89222895219712" width="5" fill="black"><title>Natural Gas: 2116.55</title></rect><rect x="0" y="58.384913060959846" height="97.93361801140229" width="5" fill="black"><title>Gas imports: 2034.32</title></rect><rect x="0" y="203.8406113583905" height="0.8501650153768594" width="5" fill="black"><title>UK land based bioenergy: 17.66</title></rect><rect x="131" y="200.1302663169575" height="4.593586963038234" width="5" fill="black"><title>Bio-conversion: 95.42000000000002</title></rect><rect x="0" y="193.73876903613237" height="1.8014255308833924" width="5" fill="black"><title>Agricultural 'waste': 37.42</title></rect><rect x="0" y="258.4740534970941" height="2.6275201890864537" width="5" fill="black"><title>Other waste: 54.580000000000005</title></rect><rect x="262" y="244.62951554521956" height="6.728627644349757" width="5" fill="black"><title>Solid: 139.77</title></rect><rect x="262" y="259.65855998094406" height="42.74028901199574" width="5" fill="black"><title>Liquid: 887.82</title></rect><rect x="262" y="85.52561104547634" height="103.79811983321464" width="5" fill="black"><title>Gas: 2156.1400000000003</title></rect><rect x="655" y="205.53237032955943" height="32.543122898908734" width="5" fill="black"><title>Losses: 676</title></rect><rect x="393" y="71.51221863413168" height="57.076112337537225" width="5" fill="black"><title>Thermal generation: 1185.6100000000001</title></rect><rect x="524" y="183.69175358697424" height="0.7769911295686143" width="5" fill="black"><title>District heating: 16.14</title></rect><rect x="524" y="236.1082969440289" height="27.99045554306582" width="5" fill="black"><title>Electricity grid: 581.4300000000001</title></rect><rect x="0" y="176.87797559590632" height="0.003851257147829301" width="5" fill="black"><title>Wind: 0.08</title></rect><rect x="0" y="185.1822436444289" height="0.25610860032870164" width="5" fill="black"><title>Hydro: 5.32</title></rect><rect x="655" y="156.31908604282" height="40.91286749536468" width="5" fill="black"><title>Industry: 849.8599999999999</title></rect><rect x="655" y="246.37591001984288" height="27.853735914318975" width="5" fill="black"><title>Heating and cooling - homes: 578.59</title></rect><rect x="655" y="282.5300627255366" height="8.323048103538895" width="5" fill="black"><title>Heating and cooling - commercial: 172.89</title></rect><rect x="655" y="307.9916761910865" height="5.364319799741736" width="5" fill="black"><title>Lighting &amp; appliances - homes: 111.43</title></rect><rect x="655" y="321.65641278220295" height="4.8805056205494" width="5" fill="black"><title>Lighting &amp; appliances - commercial: 101.38</title></rect><rect x="655" y="299.15352762045023" height="0.5377317792615486" width="5" fill="black"><title>Agriculture: 11.169999999999998</title></rect><rect x="655" y="334.8373351941271" height="16.168058913607297" width="5" fill="black"><title>Road transport: 335.84999999999997</title></rect><rect x="655" y="359.3058108991091" height="0.6941891008909238" width="5" fill="black"><title>Rail transport: 14.420000000000002</title></rect><rect x="393" y="241.5165816593189" height="0.7115197580560562" width="5" fill="black"><title>Domestic aviation: 14.78</title></rect><rect x="393" y="274.4320618271187" height="1.082684665675174" width="5" fill="black"><title>National navigation: 22.49</title></rect><rect x="393" y="198.78156748388344" height="9.078375911651193" width="5" fill="black"><title>International aviation: 188.58</title></rect><rect x="393" y="279.85199306687906" height="6.234222508001039" width="5" fill="black"><title>International shipping: 129.5</title></rect></g><g class="links" fill="none" stroke-opacity="1"><path d="M5,1.5395400448329928C68,1.5395400448329928,68,168.3497435222337,131,168.3497435222337" stroke="rgb(47, 157, 245)" style="stroke-width: 3.07908; mix-blend-mode: multiply;"><title>Coal reserves → Coal: 63.96</title></path><path d="M5,12.13458398558121C68,12.13458398558121,68,170.6443706716072,131,170.6443706716072" stroke="rgb(62, 123, 247)" style="stroke-width: 1.51017; mix-blend-mode: multiply;"><title>Coal imports → Coal: 31.37</title></path><path d="M5,271.99436794516805C68,271.99436794516805,68,252.7990910795603,131,252.7990910795603" stroke="rgb(255, 130, 29)" style="stroke-width: 5.18475; mix-blend-mode: multiply;"><title>Oil reserves → Oil: 107.7</title></path><path d="M5,231.58241493543068C68,231.58241493543068,68,231.61549184165906,131,231.61549184165906" stroke="rgb(255, 164, 35)" style="stroke-width: 37.1824; mix-blend-mode: multiply;"><title>Oil imports → Oil: 772.37</title></path><path d="M5,166.59825333413423C68,166.59825333413423,68,156.5304812156286,131,156.5304812156286" stroke="rgb(110, 254, 104)" style="stroke-width: 3.95861; mix-blend-mode: multiply;"><title>Gas reserves → Natural Gas: 82.23</title></path><path d="M5,107.35172206666104C68,107.35172206666104,68,105.58436673953004,131,105.58436673953004" stroke="rgb(77, 248, 132)" style="stroke-width: 97.9336; mix-blend-mode: multiply;"><title>Gas imports → Natural Gas: 2034.32</title></path><path d="M5,204.26569386607895C68,204.26569386607895,68,202.35677435552932,131,202.35677435552932" stroke="rgb(157, 16, 0)" style="stroke-width: 1; mix-blend-mode: multiply;"><title>UK land based bioenergy → Bio-conversion: 17.66</title></path><path d="M5,194.63948180157402C68,194.63948180157402,68,201.03097908239914,131,201.03097908239914" stroke="rgb(35, 23, 27)" style="stroke-width: 1.80143; mix-blend-mode: multiply;"><title>Agricultural 'waste' → Bio-conversion: 37.42</title></path><path d="M5,259.4450517054831C68,259.4450517054831,68,203.75285507160675,131,203.75285507160675" stroke="rgb(246, 95, 24)" style="stroke-width: 1.942; mix-blend-mode: multiply;"><title>Other waste → Bio-conversion: 40.34</title></path><path d="M5,260.7588118000263C133.5,260.7588118000263,133.5,251.01538130341518,262,251.01538130341518" stroke="rgb(246, 95, 24)" style="stroke-width: 1; mix-blend-mode: multiply;"><title>Other waste → Solid: 14.24</title></path><path d="M136,169.10507133034594C199,169.10507133034594,199,246.92438339816476,262,246.92438339816476" stroke="rgb(74, 88, 221)" style="stroke-width: 4.58974; mix-blend-mode: multiply;"><title>Coal → Solid: 95.34</title></path><path d="M136,234.20811001284352C199,234.20811001284352,199,281.2150090514668,262,281.2150090514668" stroke="rgb(248, 195, 42)" style="stroke-width: 42.3677; mix-blend-mode: multiply;"><title>Oil → Liquid: 880.08</title></path><path d="M136,107.5636722099274C199,107.5636722099274,199,136.4717255215749,262,136.4717255215749" stroke="rgb(222, 221, 50)" style="stroke-width: 101.892; mix-blend-mode: multiply;"><title>Natural Gas → Gas: 2116.55</title></path><path d="M136,203.62456006787065C199,203.62456006787065,199,249.9459353341856,262,249.9459353341856" stroke="rgb(70, 54, 153)" style="stroke-width: 1.45337; mix-blend-mode: multiply;"><title>Bio-conversion → Solid: 30.19</title></path><path d="M136,204.53754871547088C199,204.53754871547088,199,259.84486454546885,262,259.84486454546885" stroke="rgb(70, 54, 153)" style="stroke-width: 1; mix-blend-mode: multiply;"><title>Bio-conversion → Liquid: 7.74</title></path><path d="M136,201.08321175746622C199,201.08321175746622,199,188.37078543818217,262,188.37078543818217" stroke="rgb(70, 54, 153)" style="stroke-width: 1.90589; mix-blend-mode: multiply;"><title>Bio-conversion → Gas: 39.59</title></path><path d="M136,202.46701659138506C395.5,202.46701659138506,395.5,235.69252786826704,655,235.69252786826704" stroke="rgb(70, 54, 153)" style="stroke-width: 1; mix-blend-mode: multiply;"><title>Bio-conversion → Losses: 17.9</title></path><path d="M267,245.41950466766198C330,245.41950466766198,330,127.79834184922652,393,127.79834184922652" stroke="rgb(219, 61, 17)" style="stroke-width: 1.57998; mix-blend-mode: multiply;"><title>Solid → Thermal generation: 32.82</title></path><path d="M267,113.27367809180252C330,113.27367809180252,330,99.26028568045787,393,99.26028568045787" stroke="rgb(52, 235, 163)" style="stroke-width: 55.4961; mix-blend-mode: multiply;"><title>Gas → Thermal generation: 1152.79</title></path><path d="M398,100.46933972129528C461,100.46933972129528,461,184.08024915175855,524,184.08024915175855" stroke="rgb(186, 34, 8)" style="stroke-width: 1; mix-blend-mode: multiply;"><title>Thermal generation → District heating: 16.14</title></path><path d="M398,114.72308312887428C461,114.72308312887428,461,249.97354478682357,524,249.97354478682357" stroke="rgb(186, 34, 8)" style="stroke-width: 27.7305; mix-blend-mode: multiply;"><title>Thermal generation → Electricity grid: 576.03</title></path><path d="M398,85.79653139532132C526.5,85.79653139532132,526.5,219.81668309074902,655,219.81668309074902" stroke="rgb(186, 34, 8)" style="stroke-width: 28.5686; mix-blend-mode: multiply;"><title>Thermal generation → Losses: 593.44</title></path><path d="M5,176.87990122448025C264.5,176.87990122448025,264.5,263.8407182581921,524,263.8407182581921" stroke="rgb(144, 12, 0)" style="stroke-width: 1; mix-blend-mode: multiply;"><title>Wind → Electricity grid: 0.08</title></path><path d="M5,185.31029794459326C264.5,185.31029794459326,264.5,263.9706981869304,524,263.9706981869304" stroke="rgb(149, 251, 81)" style="stroke-width: 1; mix-blend-mode: multiply;"><title>Hydro → Electricity grid: 5.32</title></path><path d="M529,248.05176747007135C592,248.05176747007135,592,237.09944024507257,655,237.09944024507257" stroke="rgb(39, 215, 196)" style="stroke-width: 1.95211; mix-blend-mode: multiply;"><title>Electricity grid → Losses: 40.55</title></path><path d="M529,184.08024915175855C592,184.08024915175855,592,171.17819893331878,655,171.17819893331878" stroke="rgb(38, 188, 225)" style="stroke-width: 1; mix-blend-mode: multiply;"><title>District heating → Industry: 16.14</title></path><path d="M529,250.48768761605484C592,250.48768761605484,592,272.76977877157395,655,272.76977877157395" stroke="rgb(39, 215, 196)" style="stroke-width: 2.91973; mix-blend-mode: multiply;"><title>Electricity grid → Heating and cooling - homes: 60.65</title></path><path d="M267,169.12003588133297C461,169.12003588133297,461,258.84291081441444,655,258.84291081441444" stroke="rgb(52, 235, 163)" style="stroke-width: 24.934; mix-blend-mode: multiply;"><title>Gas → Heating and cooling - homes: 517.94</title></path><path d="M529,252.7036046974701C592,252.7036046974701,592,283.28611264436404,655,283.28611264436404" stroke="rgb(39, 215, 196)" style="stroke-width: 1.5121; mix-blend-mode: multiply;"><title>Electricity grid → Heating and cooling - commercial: 31.41</title></path><path d="M267,184.9925108088466C461,184.9925108088466,461,287.4476366961336,655,287.4476366961336" stroke="rgb(52, 235, 163)" style="stroke-width: 6.81095; mix-blend-mode: multiply;"><title>Gas → Heating and cooling - commercial: 141.48</title></path><path d="M529,256.16371854119666C592,256.16371854119666,592,310.48055112285215,655,310.48055112285215" stroke="rgb(39, 215, 196)" style="stroke-width: 4.97775; mix-blend-mode: multiply;"><title>Electricity grid → Lighting &amp; appliances - homes: 103.4</title></path><path d="M267,188.69332822431056C461,188.69332822431056,461,313.1627110227231,655,313.1627110227231" stroke="rgb(52, 235, 163)" style="stroke-width: 1; mix-blend-mode: multiply;"><title>Gas → Lighting &amp; appliances - homes: 8.03</title></path><path d="M529,260.8750095508146C592,260.8750095508146,592,323.87882886005525,655,323.87882886005525" stroke="rgb(39, 215, 196)" style="stroke-width: 4.44483; mix-blend-mode: multiply;"><title>Electricity grid → Lighting &amp; appliances - commercial: 92.33</title></path><path d="M267,189.10444992483818C461,189.10444992483818,461,326.31908167032987,655,326.31908167032987" stroke="rgb(52, 235, 163)" style="stroke-width: 1; mix-blend-mode: multiply;"><title>Gas → Lighting &amp; appliances - commercial: 9.05</title></path><path d="M529,241.59200571535237C592,241.59200571535237,592,191.7482447668613,655,191.7482447668613" stroke="rgb(39, 215, 196)" style="stroke-width: 10.9674; mix-blend-mode: multiply;"><title>Electricity grid → Industry: 227.82</title></path><path d="M267,248.76215516838053C461,248.76215516838053,461,174.11935587637922,655,174.11935587637922" stroke="rgb(219, 61, 17)" style="stroke-width: 5.10532; mix-blend-mode: multiply;"><title>Solid → Industry: 106.05</title></path><path d="M267,274.24471502109253C461,274.24471502109253,461,181.4682766250965,655,181.4682766250965" stroke="rgb(187, 240, 63)" style="stroke-width: 9.59252; mix-blend-mode: multiply;"><title>Liquid → Industry: 199.26</title></path><path d="M267,148.25705380098594C461,148.25705380098594,461,163.55439470567725,655,163.55439470567725" stroke="rgb(52, 235, 163)" style="stroke-width: 14.4706; mix-blend-mode: multiply;"><title>Gas → Industry: 300.59</title></path><path d="M529,253.56724911286423C592,253.56724911286423,592,299.26112211701684,655,299.26112211701684" stroke="rgb(39, 215, 196)" style="stroke-width: 1; mix-blend-mode: multiply;"><title>Electricity grid → Agriculture: 4.47</title></path><path d="M267,251.3362391645413C461,251.3362391645413,461,299.4921975458849,655,299.4921975458849" stroke="rgb(219, 61, 17)" style="stroke-width: 1; mix-blend-mode: multiply;"><title>Solid → Agriculture: 0.89</title></path><path d="M267,286.44670118318123C461,286.44670118318123,461,299.6024397817407,655,299.6024397817407" stroke="rgb(187, 240, 63)" style="stroke-width: 1; mix-blend-mode: multiply;"><title>Liquid → Agriculture: 3.69</title></path><path d="M267,188.4490140989969C461,188.4490140989969,461,299.4197457707919,655,299.4197457707919" stroke="rgb(52, 235, 163)" style="stroke-width: 1; mix-blend-mode: multiply;"><title>Gas → Agriculture: 2.12</title></path><path d="M529,263.43055937195146C592,263.43055937195146,592,335.1704689374118,655,335.1704689374118" stroke="rgb(39, 215, 196)" style="stroke-width: 1; mix-blend-mode: multiply;"><title>Electricity grid → Road transport: 13.84</title></path><path d="M267,294.2864165146713C461,294.2864165146713,461,343.2544983942154,655,343.2544983942154" stroke="rgb(187, 240, 63)" style="stroke-width: 15.5018; mix-blend-mode: multiply;"><title>Liquid → Road transport: 322.01</title></path><path d="M529,263.930741394022C592,263.930741394022,592,359.4728591778949,655,359.4728591778949" stroke="rgb(39, 215, 196)" style="stroke-width: 1; mix-blend-mode: multiply;"><title>Electricity grid → Rail transport: 6.94</title></path><path d="M267,302.2173584998499C461,302.2173584998499,461,359.81995372834035,655,359.81995372834035" stroke="rgb(187, 240, 63)" style="stroke-width: 1; mix-blend-mode: multiply;"><title>Liquid → Rail transport: 7.48</title></path><path d="M267,269.0926957716233C330,269.0926957716233,330,241.87234153834692,393,241.87234153834692" stroke="rgb(187, 240, 63)" style="stroke-width: 1; mix-blend-mode: multiply;"><title>Liquid → Domestic aviation: 14.78</title></path><path d="M267,279.58231672437137C330,279.58231672437137,330,274.97340415995626,393,274.97340415995626" stroke="rgb(187, 240, 63)" style="stroke-width: 1.08268; mix-blend-mode: multiply;"><title>Liquid → National navigation: 22.49</title></path><path d="M267,264.19774793676964C330,264.19774793676964,330,203.32075543970902,393,203.32075543970902" stroke="rgb(187, 240, 63)" style="stroke-width: 9.07838; mix-blend-mode: multiply;"><title>Liquid → International aviation: 188.58</title></path><path d="M267,283.2407703112096C330,283.2407703112096,330,282.9691043208795,393,282.9691043208795" stroke="rgb(187, 240, 63)" style="stroke-width: 6.23422; mix-blend-mode: multiply;"><title>Liquid → International shipping: 129.5</title></path><path d="M267,156.07269877530229C461,156.07269877530229,461,234.68133216339774,655,234.68133216339774" stroke="rgb(52, 235, 163)" style="stroke-width: 1.16067; mix-blend-mode: multiply;"><title>Gas → Losses: 24.11</title></path></g><g><text x="9" y="1.5395400448329928" text-anchor="start"><tspan alignment-baseline="middle" style="font-family: Arial, sans-serif; font-size: 10px; fill: black; font-weight: bold;">Coal reserves</tspan></text><text x="140" y="169.10507133034594" text-anchor="start"><tspan alignment-baseline="middle" style="font-family: Arial, sans-serif; font-size: 10px; fill: black; font-weight: bold;">Coal</tspan></text><text x="9" y="12.134583985581259" text-anchor="start"><tspan alignment-baseline="middle" style="font-family: Arial, sans-serif; font-size: 10px; fill: black; font-weight: bold;">Coal imports</tspan></text><text x="9" y="271.99436794516805" text-anchor="start"><tspan alignment-baseline="middle" style="font-family: Arial, sans-serif; font-size: 10px; fill: black; font-weight: bold;">Oil reserves</tspan></text><text x="140" y="234.20811001284352" text-anchor="start"><tspan alignment-baseline="middle" style="font-family: Arial, sans-serif; font-size: 10px; fill: black; font-weight: bold;">Oil</tspan></text><text x="9" y="231.58241493543073" text-anchor="start"><tspan alignment-baseline="middle" style="font-family: Arial, sans-serif; font-size: 10px; fill: black; font-weight: bold;">Oil imports</tspan></text><text x="9" y="166.59825333413423" text-anchor="start"><tspan alignment-baseline="middle" style="font-family: Arial, sans-serif; font-size: 10px; fill: black; font-weight: bold;">Gas reserves</tspan></text><text x="140" y="107.5636722099274" text-anchor="start"><tspan alignment-baseline="middle" style="font-family: Arial, sans-serif; font-size: 10px; fill: black; font-weight: bold;">Natural Gas</tspan></text><text x="9" y="107.35172206666098" text-anchor="start"><tspan alignment-baseline="middle" style="font-family: Arial, sans-serif; font-size: 10px; fill: black; font-weight: bold;">Gas imports</tspan></text><text x="9" y="204.26569386607895" text-anchor="start"><tspan alignment-baseline="middle" style="font-family: Arial, sans-serif; font-size: 10px; fill: black; font-weight: bold;">UK land based bioenergy</tspan></text><text x="140" y="202.4270597984766" text-anchor="start"><tspan alignment-baseline="middle" style="font-family: Arial, sans-serif; font-size: 10px; fill: black; font-weight: bold;">Bio-conversion</tspan></text><text x="9" y="194.63948180157405" text-anchor="start"><tspan alignment-baseline="middle" style="font-family: Arial, sans-serif; font-size: 10px; fill: black; font-weight: bold;">Agricultural 'waste'</tspan></text><text x="9" y="259.7878135916373" text-anchor="start"><tspan alignment-baseline="middle" style="font-family: Arial, sans-serif; font-size: 10px; fill: black; font-weight: bold;">Other waste</tspan></text><text x="271" y="247.99382936739443" text-anchor="start"><tspan alignment-baseline="middle" style="font-family: Arial, sans-serif; font-size: 10px; fill: black; font-weight: bold;">Solid</tspan></text><text x="271" y="281.02870448694193" text-anchor="start"><tspan alignment-baseline="middle" style="font-family: Arial, sans-serif; font-size: 10px; fill: black; font-weight: bold;">Liquid</tspan></text><text x="271" y="137.42467096208367" text-anchor="start"><tspan alignment-baseline="middle" style="font-family: Arial, sans-serif; font-size: 10px; fill: black; font-weight: bold;">Gas</tspan></text><text x="651" y="221.8039317790138" text-anchor="end"><tspan alignment-baseline="middle" style="font-family: Arial, sans-serif; font-size: 10px; fill: black; font-weight: bold;">Losses</tspan></text><text x="389" y="100.0502748029003" text-anchor="end"><tspan alignment-baseline="middle" style="font-family: Arial, sans-serif; font-size: 10px; fill: black; font-weight: bold;">Thermal generation</tspan></text><text x="520" y="184.08024915175855" text-anchor="end"><tspan alignment-baseline="middle" style="font-family: Arial, sans-serif; font-size: 10px; fill: black; font-weight: bold;">District heating</tspan></text><text x="520" y="250.1035247155618" text-anchor="end"><tspan alignment-baseline="middle" style="font-family: Arial, sans-serif; font-size: 10px; fill: black; font-weight: bold;">Electricity grid</tspan></text><text x="9" y="176.87990122448025" text-anchor="start"><tspan alignment-baseline="middle" style="font-family: Arial, sans-serif; font-size: 10px; fill: black; font-weight: bold;">Wind</tspan></text><text x="9" y="185.31029794459323" text-anchor="start"><tspan alignment-baseline="middle" style="font-family: Arial, sans-serif; font-size: 10px; fill: black; font-weight: bold;">Hydro</tspan></text><text x="651" y="176.77551979050236" text-anchor="end"><tspan alignment-baseline="middle" style="font-family: Arial, sans-serif; font-size: 10px; fill: black; font-weight: bold;">Industry</tspan></text><text x="651" y="260.3027779770024" text-anchor="end"><tspan alignment-baseline="middle" style="font-family: Arial, sans-serif; font-size: 10px; fill: black; font-weight: bold;">Heating and cooling - homes</tspan></text><text x="651" y="286.69158677730604" text-anchor="end"><tspan alignment-baseline="middle" style="font-family: Arial, sans-serif; font-size: 10px; fill: black; font-weight: bold;">Heating and cooling - commercial</tspan></text><text x="651" y="310.67383609095737" text-anchor="end"><tspan alignment-baseline="middle" style="font-family: Arial, sans-serif; font-size: 10px; fill: black; font-weight: bold;">Lighting &amp; appliances - homes</tspan></text><text x="651" y="324.0966655924776" text-anchor="end"><tspan alignment-baseline="middle" style="font-family: Arial, sans-serif; font-size: 10px; fill: black; font-weight: bold;">Lighting &amp; appliances - commercial</tspan></text><text x="651" y="299.422393510081" text-anchor="end"><tspan alignment-baseline="middle" style="font-family: Arial, sans-serif; font-size: 10px; fill: black; font-weight: bold;">Agriculture</tspan></text><text x="651" y="342.92136465093074" text-anchor="end"><tspan alignment-baseline="middle" style="font-family: Arial, sans-serif; font-size: 10px; fill: black; font-weight: bold;">Road transport</tspan></text><text x="651" y="359.6529054495545" text-anchor="end"><tspan alignment-baseline="middle" style="font-family: Arial, sans-serif; font-size: 10px; fill: black; font-weight: bold;">Rail transport</tspan></text><text x="389" y="241.87234153834692" text-anchor="end"><tspan alignment-baseline="middle" style="font-family: Arial, sans-serif; font-size: 10px; fill: black; font-weight: bold;">Domestic aviation</tspan></text><text x="389" y="274.97340415995626" text-anchor="end"><tspan alignment-baseline="middle" style="font-family: Arial, sans-serif; font-size: 10px; fill: black; font-weight: bold;">National navigation</tspan></text><text x="389" y="203.32075543970905" text-anchor="end"><tspan alignment-baseline="middle" style="font-family: Arial, sans-serif; font-size: 10px; fill: black; font-weight: bold;">International aviation</tspan></text><text x="389" y="282.9691043208796" text-anchor="end"><tspan alignment-baseline="middle" style="font-family: Arial, sans-serif; font-size: 10px; fill: black; font-weight: bold;">International shipping</tspan></text></g></g></svg>